<svg width="500" height="500" viewBox="0 0 500 500" fill="none" xmlns="http://www.w3.org/2000/svg">
    <g clip-path="url(#clip0_1_2)">
        <path d="M227.055 20.3298C226.834 21.8053 227.203 37.9626 227.645 44.4551L228.088 51.7591L240.925 51.3902C247.934 51.1689 253.91 50.8 254.205 50.5049C254.5 50.2835 254.353 49.1031 253.984 47.9964L253.32 46.0044L244.098 45.6355L234.876 45.2666L234.654 41.4302C234.433 37.0773 234.064 37.2249 244.688 36.3395L250.738 35.8969V33.3146V30.6586L242.696 31.1751L234.58 31.6915L234.064 29.0355C233.843 27.56 233.843 26.1582 234.138 25.8631C234.359 25.568 238.343 24.9778 242.844 24.6089C251.107 23.8711 251.107 23.8711 251.328 21.8053L251.549 19.8133H239.376C232.662 19.8133 227.055 20.0346 227.055 20.3298Z"
              fill="black"/>
        <path d="M258.484 24.3876C257.452 34.5689 257.009 49.5458 257.747 50.5787C258.263 51.2427 259.517 51.5378 261.067 51.3902C263.649 51.1689 263.649 51.1689 263.796 47.1111C264.165 39.8071 264.608 38.2578 266.526 38.2578C269.035 38.2578 270.363 39.5858 274.199 45.9307C276.117 49.1031 278.183 51.9805 278.773 52.2756C280.249 53.0133 294.193 55.5956 294.562 55.1529C294.783 54.9316 298.324 35.7493 299.8 26.8222C300.316 23.8711 298.915 22.0267 296.111 21.8053L293.898 21.6578L292.57 29.0356C291.832 33.0933 290.799 37.8889 290.209 39.7333C289.692 41.5778 288.807 45.2667 288.364 47.9965C287.848 50.8 287.332 53.0133 287.11 53.0133C286.372 53.0133 284.897 51.0213 284.012 48.7342C283.421 47.4062 282.02 44.9716 280.913 43.4222C278.183 39.6596 278.257 38.7742 281.282 36.4133C285.487 33.2409 286.668 27.4862 283.864 23.9449C281.06 20.4036 278.921 19.8133 268.518 19.8133H259.001L258.484 24.3876ZM276.412 25.4205C277.74 25.7893 278.036 26.3796 278.036 29.0356C278.036 32.7982 277.519 33.0933 271.396 33.0933C266.157 33.0933 264.756 31.9867 264.756 27.8551V24.9778H269.772C272.502 24.9778 275.453 25.1991 276.412 25.4205Z"
              fill="black"/>
        <path d="M209.422 21.3627C207.578 21.8053 203.446 22.6169 200.2 23.2071C196.954 23.7973 194.003 24.6089 193.708 24.9778C193.339 25.2729 193.708 28.9618 194.593 33.1671C195.404 37.3724 196.585 44.16 197.323 48.2178C197.987 52.2756 198.798 55.8907 199.093 56.2596C199.462 56.5547 203.815 56.1858 208.832 55.3742C213.775 54.4889 219.308 53.6036 221.079 53.3822C223.661 52.9396 224.178 52.5707 224.178 51.2427C224.178 50.3573 223.735 49.0293 223.219 48.2178C222.26 46.9636 221.964 46.9636 214.144 48.4391C205.143 50.136 204.922 50.136 203.594 45.2667C202.708 41.8729 203.004 41.5778 207.873 40.84C209.717 40.6187 213.185 40.0285 215.546 39.512L219.751 38.7004V35.8969C219.751 33.0933 219.677 33.0196 217.39 33.3885C207.652 34.9378 203.446 35.4542 202.561 35.0853C201.971 34.864 201.307 33.6098 201.159 32.3556C200.716 29.4782 201.307 29.1831 211.267 27.4862C215.324 26.8222 218.866 26.0107 219.235 25.7893C219.53 25.4942 219.53 24.1662 219.308 22.912C218.866 20.6987 218.644 20.5511 215.767 20.6249C214.144 20.6987 211.267 20.9938 209.422 21.3627Z"
              fill="black"/>
        <path d="M304.596 32.1343C303.71 36.1183 302.013 43.2009 300.907 47.8489C299.726 52.4969 298.988 56.5547 299.284 56.8498C299.579 57.0712 300.907 57.4401 302.235 57.5876L304.743 57.8089L306.883 49.3245C308.063 44.6765 309.022 40.7663 309.022 40.6187C309.022 40.5449 309.317 40.4712 309.76 40.4712C310.129 40.4712 311.678 44.3814 313.154 49.1032C316.843 61.0552 317.433 62.2356 320.532 63.1947C322.45 63.7849 323.188 63.7849 323.409 63.1209C323.556 62.6045 324.737 59.4321 325.991 55.9645C328.5 49.0294 333 31.6916 332.41 31.1752C332.262 30.9538 330.639 30.7325 328.942 30.6587C325.253 30.5112 325.622 29.8472 322.745 42.3156L320.974 49.6934L319.204 45.6356C318.171 43.4223 317.138 40.5449 316.843 39.3645C316.548 38.1103 315.662 34.8641 314.851 32.1343C313.523 27.6338 313.08 26.9698 310.867 26.0107C306.588 24.2401 306.366 24.3876 304.596 32.1343Z"
              fill="black"/>
        <path d="M180.87 27.9289C178.952 28.6667 179.026 29.7733 181.534 38.2578C182.346 40.9138 183.157 44.0124 183.379 45.1929L183.821 47.3324L181.534 45.9307C177.845 43.5698 170.836 38.184 168.033 35.528C165.82 33.4622 165.082 33.1671 163.09 33.536C159.327 34.2738 159.106 35.1591 161.172 41.6515C165.967 56.8498 166.852 59.5058 168.328 62.8258C169.582 65.8507 170.099 66.3671 171.353 65.9982C172.238 65.7769 173.345 65.5555 173.861 65.5555C175.189 65.5555 174.968 64.1538 172.164 55.7431C168.402 44.6027 168.623 44.0124 174.525 49.1769C176.075 50.5049 179.764 53.456 182.715 55.7431C187.584 59.432 188.396 59.8009 190.756 59.432C192.232 59.1369 193.708 58.6942 194.076 58.3253C194.593 57.8089 186.772 31.7653 185.149 28.6667C184.412 27.2649 183.01 27.0435 180.87 27.9289Z"
              fill="black"/>
        <path d="M148.482 40.4711C145.973 41.4302 145.9 42.168 147.965 46.4471C148.998 48.6604 151.802 54.9315 154.163 60.3911C158.589 70.5724 159.18 71.2364 162.721 70.3511C164.418 69.9822 164.565 69.6133 164.196 67.3262C163.975 65.9244 161.614 60.0222 159.032 54.2675C156.45 48.5129 153.941 42.9058 153.499 41.7253C152.613 39.6595 151.285 39.2906 148.482 40.4711Z"
              fill="black"/>
        <path d="M343.255 41.8729C339.714 43.496 334.402 49.8409 333.369 53.6773C332.557 56.8498 333.443 63.5635 335.14 66.9573C337.5 71.5315 353.879 77.36 356.609 74.6302C357.125 74.1138 358.527 71.8266 359.634 69.6133C360.667 67.3262 361.847 65.3342 362.216 65.1129C363.913 64.08 362.437 62.6044 357.494 60.096C351.666 57.2186 349.231 56.776 348.567 58.6204C347.682 60.9075 348.198 61.9404 350.707 63.1209C353.51 64.4489 354.764 66.8098 353.215 67.8426C350.412 69.6133 342.444 67.2524 340.747 64.1538C338.755 60.3911 341.558 50.6524 345.321 48.3653C351.223 44.6764 357.347 47.1111 358.748 53.8249C359.191 55.8906 362.732 57.9564 364.651 57.2186C366.052 56.6284 366.864 51.3164 365.831 49.3982C364.798 47.3324 357.937 42.3893 354.838 41.2826C351.223 40.1022 346.723 40.3235 343.255 41.8729Z"
              fill="black"/>
        <path d="M129.89 49.2507C124.652 50.5787 119.561 55.5218 117.569 61.2027C116.388 64.3751 116.979 68.8018 119.118 72.9333C120.446 75.6631 127.16 81.7129 130.259 82.9671C132.62 84 133.431 84 137.858 82.8933C143.834 81.4178 148.998 77.6551 151.654 72.9333L153.572 69.6133L151.949 66.4409C151.138 64.744 149.736 62.0142 148.924 60.3911C148.113 58.768 147.301 57.44 147.08 57.44C146.195 57.44 136.604 62.8995 135.349 64.1538C134.095 65.2604 134.021 65.7769 134.759 67.4C135.792 69.6133 136.972 69.6871 140.883 67.7689C144.276 65.9982 145.236 66.2933 145.236 69.1707C145.236 71.5315 140.366 76.5484 138.005 76.696C137.341 76.696 135.866 76.9173 134.833 77.0649C132.398 77.4338 129.3 75.0729 126.127 70.2035C122.586 64.8178 123.176 60.0222 127.824 56.8498C129.964 55.448 130.849 55.2267 133.948 55.6693C136.751 56.0382 138.374 55.8169 140.366 54.8578C141.842 54.12 143.022 53.3084 143.022 53.0133C143.022 52.6444 141.989 51.6115 140.735 50.7262C138.227 48.9555 133.652 48.3653 129.89 49.2507Z"
              fill="black"/>
        <path d="M235.244 58.9156C228.088 59.5058 216.431 61.2764 206.471 63.3422C201.897 64.3013 193.191 66.8098 182.862 70.1298C174.452 72.7858 153.056 83.0409 149.588 85.992C148.187 87.1725 144.203 89.9022 140.735 91.968C120.077 104.363 95.7307 128.783 81.4178 151.507C77.5075 157.63 74.3351 163.828 66.2933 181.018C55.448 204.036 49.5458 238.196 51.5378 266.231C52.792 284.454 56.5547 303.858 61.7191 318.613C63.416 323.483 71.9004 342.296 75.2204 348.493C78.024 353.732 88.9431 370.405 93.296 376.16C96.7635 380.66 115.429 399.179 123.471 406.114C140.366 420.648 160.286 431.862 185.444 440.937C204.848 447.872 226.612 451.487 250.738 451.635C273.019 451.782 290.283 449.126 310.498 442.56C319.425 439.609 330.049 435.625 335.14 433.412C345.837 428.69 366.79 415.631 375.348 408.401C384.792 400.433 405.524 379.48 410.319 372.988C420.279 359.781 428.764 344.362 436.732 325.401C445.511 304.374 449.864 281.06 449.864 254.796C449.864 238.343 449.2 230.154 446.692 217.538C443.74 202.93 440.716 193.412 435.477 182.346C432.748 176.739 429.501 169.656 428.247 166.631C425.075 159.18 415.631 144.276 408.696 135.718C401.466 126.717 381.841 107.166 374.684 101.707C363.913 93.5911 346.132 82.5244 335.508 77.4338C306.883 63.5635 267.707 56.3333 235.244 58.9156ZM273.978 66.3671C299.136 68.9493 327.688 78.5404 347.387 90.9351C369.52 105.027 378.595 112.109 392.317 126.496C414.967 150.252 425.37 169.287 438.428 210.529C445.437 232.884 446.249 269.551 440.273 293.012C437.691 303.12 429.428 327.172 425.812 334.992C417.992 351.887 408.401 366.716 397.998 377.636C395.859 379.849 392.391 383.612 390.325 385.972C382.062 395.121 362.659 410.909 350.854 418.14C337.722 426.108 313.818 436.068 300.98 438.871C297.365 439.683 294.045 440.494 293.455 440.716C291.463 441.38 278.995 443.372 269.551 444.404C237.089 448.093 201.602 442.044 167.738 427.214C156.081 422.124 144.572 414.746 130.775 403.679C118.012 393.276 102.076 377.34 94.624 367.307C86.3609 356.314 78.024 341.263 72.8595 328.5C64.6702 307.916 61.5715 297.587 59.3582 282.757C57.7351 272.428 57.44 267.928 57.44 254.353C57.44 234.064 59.6533 218.571 64.4489 204.996C70.056 188.986 71.4578 185.592 78.9831 168.844C84.2213 157.114 94.8453 141.399 104.363 131.292C114.028 121.036 129.447 107.019 135.276 103.108C147.006 95.288 166.188 83.7787 171.574 81.344C176.812 78.9831 195.036 72.712 203.52 70.3511C221.3 65.4818 249.336 63.8587 273.978 66.3671Z"
              fill="black"/>
        <path d="M234.138 78.9094C223.44 79.7209 210.308 82.0081 202.782 84.3689C195.036 86.7298 176.148 94.3289 169.951 97.4276C156.819 104.068 141.252 114.249 132.62 121.848C125.537 127.972 111.372 143.244 106.724 149.588C105.027 151.876 102.444 155.122 100.895 156.892C97.28 161.024 85.5493 184.78 82.2293 194.667C79.352 203.372 75.6631 216.062 74.4827 221.596C72.2693 231.998 71.6053 242.18 72.9333 242.991C73.376 243.286 98.8293 243.434 129.521 243.434L185.223 243.36L184.707 245.352C184.485 246.532 181.977 251.918 179.321 257.452L174.378 267.485L165.229 268.002C160.139 268.297 137.71 268.518 115.429 268.444C93.0747 268.371 74.1876 268.297 73.5236 268.371C71.7529 268.444 71.8267 271.469 73.7449 282.757C78.688 311.9 89.8284 340.009 103.33 357.125C122.217 381.029 130.775 388.924 156.302 405.892C168.476 413.934 175.78 417.549 189.797 422.345C211.488 429.796 227.94 432.526 251.476 432.452C278.036 432.452 298.767 428.173 324.516 417.254C334.771 412.975 349.526 403.753 364.356 392.391C376.529 383.169 392.465 365.61 404.048 348.641C414.967 332.852 426.403 299.874 428.173 279.142C428.395 276.265 428.764 272.576 428.985 270.879L429.354 267.707L374.611 267.559L319.794 267.338L314.556 256.861C311.752 251.107 308.948 245.942 308.506 245.426C307.989 244.983 307.547 244.319 307.547 244.024C307.547 243.729 334.697 243.508 367.897 243.508L428.173 243.581L428.395 237.827C428.837 225.801 421.755 198.134 414.082 181.756C406.704 166.041 401.687 158.147 388.481 141.694C377.709 128.34 373.799 124.725 359.56 114.618C342.444 102.592 330.049 96.0258 310.645 88.8694C296.48 83.6312 287.922 81.2703 277.74 79.9423C267.412 78.5405 245.426 78.0241 234.138 78.9094ZM270.289 85.5494C295.742 90.1236 300.316 91.3041 313.449 96.3209C333.738 104.068 346.87 111.814 365.462 126.865C384.792 142.432 404.122 170.394 414.082 197.101C419.394 211.34 424.411 235.54 422.345 236.868C421.312 237.532 330.049 237.679 315.515 237.015L304.596 236.499L301.497 230.892C299.8 227.793 297.292 223.145 295.89 220.489C294.488 217.833 292.201 213.701 290.725 211.267C286.889 204.7 278.109 188.322 268.74 169.951L260.476 153.72H244.467H228.457L224.916 161.836C222.997 166.262 217.021 178.657 211.709 189.281C206.397 199.831 202.044 208.758 202.044 209.053C202.044 209.275 199.684 214.365 196.806 220.341C193.855 226.317 190.904 232.588 190.166 234.359L188.838 237.458L134.243 237.31C94.9191 237.163 79.4258 236.868 78.8356 236.277C77.4338 234.876 81.5653 213.849 85.5493 202.044C87.1724 197.101 91.1564 187.215 94.1076 180.649C99.272 169.213 115.134 146.785 125.463 136.235C131.292 130.259 150.621 115.208 157.556 111.224C158.663 110.486 161.983 108.568 164.787 106.871C182.493 96.1734 209.791 87.7627 237.827 84.3689C247.713 83.1885 259.37 83.5574 270.289 85.5494ZM247.86 185.223C249.188 187.805 251.771 192.158 253.689 195.036C255.533 197.839 259.075 203.668 261.436 207.947C263.796 212.226 266.748 217.538 268.076 219.751C272.724 227.498 277.224 236.572 276.781 237.015C276.044 237.679 218.792 237.532 217.685 236.794C216.874 236.351 219.899 229.859 230.449 208.98C245.573 179.173 244.762 180.649 245.204 180.649C245.426 180.649 246.606 182.715 247.86 185.223ZM282.905 247.196C283.938 249.336 287.036 254.648 289.692 259.075C292.275 263.428 294.34 267.116 294.193 267.264C293.824 267.559 237.089 268.002 216.21 267.854C201.528 267.707 201.233 267.707 201.676 266.231C201.971 265.42 204.479 259.96 207.283 254.058L212.447 243.36H246.754H280.987L282.905 247.196ZM171.058 273.461C171.058 273.83 166.484 283.716 160.876 295.447C155.196 307.178 149.957 318.318 149.072 320.163C148.26 322.007 145.752 327.467 143.465 332.336C141.178 337.279 139.333 342.222 139.333 343.403C139.333 344.583 139.85 347.682 140.514 350.338C141.178 352.994 142.063 359.117 142.506 363.913C143.022 369.225 143.76 372.84 144.276 372.988C145.826 373.504 148.113 370.11 154.384 357.789C157.778 351.076 161.983 342.886 163.606 339.64C165.303 336.394 168.771 329.237 171.427 323.778C174.083 318.318 177.403 311.826 178.878 309.391C180.28 306.956 184.928 297.956 189.207 289.324C193.855 280.028 197.47 273.535 198.208 273.314C198.872 273.166 221.669 273.019 248.82 273.092L298.177 273.24L299.8 276.191C300.685 277.814 303.71 283.421 306.588 288.733C315.441 305.112 316.99 307.989 320.9 314.703C325.253 322.155 337.722 344.436 341.927 352.256C355.281 376.898 358.011 381.324 359.56 381.324C361.921 381.324 364.577 374.389 366.938 362.216C368.118 356.092 367.897 355.133 363.47 348.124C362.068 345.911 357.42 337.058 353.141 328.573C348.862 320.015 344.288 311.088 342.96 308.653C337.5 298.767 331.893 288.217 331.893 287.996C331.893 287.553 325.917 277.888 324.368 275.896C323.63 274.937 323.261 273.904 323.483 273.535C323.925 272.724 422.419 272.65 422.935 273.461C423.378 274.199 422.197 283.274 420.722 290.578C417.476 306.145 409.581 327.245 403.236 337.427C386.858 363.765 378.447 373.652 360.076 388.186C347.313 398.293 322.597 412.532 310.867 416.59C293.234 422.566 274.716 426.108 256.345 426.845C228.162 427.952 195.626 420.722 171.427 407.811C162.426 403.089 143.17 390.104 135.718 383.907C122.069 372.471 105.1 351.371 96.7636 335.582C89.4596 321.712 82.0818 300.021 79.9422 286.151C79.352 282.315 78.6142 277.962 78.3929 276.412C78.024 274.199 78.1716 273.683 79.2782 273.388C81.7867 272.797 171.058 272.871 171.058 273.461Z"
              fill="#3765AA"/>
        <path d="M230.818 123.471V148.187H245.204H259.517L259.739 123.988C259.886 110.708 259.96 99.7884 259.96 99.7146C259.96 99.6409 253.394 99.4195 245.352 99.1982L230.818 98.7555V123.471Z"
              fill="#3765AA"/>
        <path d="M312.268 118.602C312.121 118.749 311.973 124.873 311.973 132.103V145.236H323.04H334.107V132.029V118.749L323.335 118.528C317.433 118.38 312.416 118.454 312.268 118.602Z"
              fill="#3765AA"/>
        <path d="M197.175 133.284C191.789 138.227 179.247 148.703 171.722 154.605C167.738 157.778 164.27 161.024 164.049 161.836C163.828 162.647 163.754 176.37 163.828 192.38C164.049 218.349 164.196 221.374 165.156 220.415C168.033 217.685 176.444 210.676 182.346 206.176C185.961 203.372 191.42 198.724 194.519 195.773L200.2 190.388V160.434C200.2 143.981 200.2 130.48 200.2 130.48C200.2 130.48 198.872 131.734 197.175 133.284Z"
              fill="#3765AA"/>
        <path d="M278.036 150.179C278.036 150.843 285.782 164.049 306.44 198.724C310.572 205.586 315.367 213.849 317.064 217.021C318.835 220.12 320.827 223.071 321.564 223.44C322.966 224.178 408.622 224.547 408.622 223.809C408.622 223.292 408.475 223.071 401.097 211.267C390.399 194.076 366.569 152.687 366.569 151.212C366.569 150.843 366.052 150.326 365.388 150.105C363.839 149.515 278.036 149.515 278.036 150.179Z"
              fill="#3765AA"/>
        <path d="M121.479 158.442C121.11 160.655 121.405 216.8 121.774 217.169C122.069 217.464 153.941 221.448 156.524 221.522L158.589 221.596L158.737 191.937L158.884 162.204L157.04 161.909C156.007 161.688 149.736 160.803 143.022 159.991C136.308 159.18 128.783 158.073 126.275 157.556L121.774 156.597L121.479 158.442Z"
              fill="#3765AA"/>
        <path d="M209.422 329.606V351.592L200.052 357.125C194.814 360.15 186.477 364.946 181.387 367.676C168.697 374.611 168.844 374.463 168.844 376.455V378.226L215.177 378.668C319.056 379.701 309.76 379.775 309.391 378.004C309.244 377.193 308.875 365.388 308.653 351.813C308.432 338.238 308.063 327.024 307.916 326.803C307.768 326.655 306.514 327.467 305.186 328.573C302.013 331.229 262.616 356.978 261.731 356.978C261.362 356.978 260.919 356.092 260.624 354.912C260.403 353.805 259.001 348.936 257.599 344.067C256.197 339.197 254.5 333.221 253.91 330.787C253.246 328.352 252.656 326.212 252.508 326.065C252.361 325.917 251.033 326.803 249.484 327.983C244.024 332.115 226.244 342.96 224.842 342.96C224.399 342.96 224.178 336.172 224.325 325.696L224.547 308.432L219.087 307.989C216.062 307.768 212.668 307.547 211.488 307.547H209.422V329.606Z"
              fill="#3765AA"/>
        <path d="M101.854 67.9902C100.969 68.9493 100.231 69.9822 100.231 70.2773C100.231 70.5724 102.297 73.0809 104.879 75.7369C107.461 78.4667 110.117 81.5653 110.781 82.672C112.552 85.4755 111.74 85.4018 100.895 81.7867C96.0258 80.1635 91.3778 78.8355 90.4924 78.8355C88.648 78.8355 84.7378 81.0489 84.7378 82.1555C84.7378 84.0738 102.297 105.396 105.1 106.945C106.502 107.683 107.166 107.609 108.716 106.576C109.748 105.912 110.56 104.879 110.56 104.289C110.56 103.625 107.904 100.379 104.658 96.9849C101.412 93.5911 98.7556 90.4187 98.7556 89.976C98.7556 88.7218 101.78 89.4595 111.298 92.9271C115.577 94.4764 119.708 95.8044 120.594 95.8044C121.405 95.8044 123.028 94.7715 124.209 93.5911L126.348 91.3778L124.43 89.312C123.397 88.2053 121.996 86.2871 121.405 85.1067C120.741 83.8524 118.307 80.7538 115.872 78.0978C113.437 75.4418 110.339 71.8267 108.937 69.9822C105.986 66.072 104.141 65.5555 101.854 67.9902Z"
              fill="black"/>
        <path d="M389.735 67.3262C387.522 68.3591 386.489 70.1298 386.489 73.4498C386.489 76.032 384.497 77.4338 380.956 77.2862C373.652 76.8435 370.332 83.4835 374.02 91.0827C375.644 94.5502 379.701 98.0178 381.988 98.0178C384.571 98.0178 385.751 98.9031 387.3 101.78C388.85 104.805 389.735 105.174 392.686 103.772C394.383 103.035 394.531 102.666 394.162 100.231C393.719 97.5751 393.793 97.4276 396.744 96.0996C398.367 95.288 399.769 94.3289 399.769 93.8124C399.769 93.296 398.22 91.8942 396.375 90.64C393.645 88.7218 393.055 87.9102 393.276 86.3609C393.424 84.7378 394.088 84.2951 396.818 83.4836C403.236 81.6391 403.974 80.9013 404.638 75.5156C405.007 72.4907 403.384 70.6462 397.924 68.064C393.719 66.072 392.908 65.9982 389.735 67.3262ZM397.924 73.0071C398.662 74.1875 397.703 77.1387 396.375 77.6551C394.9 78.2453 392.391 76.9173 392.391 75.5156C392.391 73.0809 396.744 71.0889 397.924 73.0071ZM386.046 82.2293C387.005 84.664 386.489 91.1564 385.382 92.1156C383.759 93.5173 379.332 91.304 378.668 88.8693C377.636 84.5902 384.571 78.3191 386.046 82.2293Z"
              fill="black"/>
        <path d="M73.6711 94.0338C72.2693 95.8782 68.6542 99.7146 65.7031 102.592C61.3502 106.871 60.4649 108.052 61.2764 108.642C65.8507 112.109 77.7289 122.143 82.1555 126.201C83.7787 127.75 85.4018 129.004 85.8444 129.004C86.5822 129.004 91.0827 124.43 98.5342 115.946L103.108 110.781L101.19 109.232C98.6818 107.24 97.7227 107.756 92.3369 114.249C89.976 117.052 87.4675 119.413 86.8035 119.413C85.328 119.413 81.0489 115.946 81.0489 114.692C81.0489 114.249 83.0409 111.593 85.5493 108.789C90.1973 103.551 90.7875 101.485 88.2053 99.936C87.0249 99.272 86.1395 99.8622 81.7867 104.436C78.9831 107.388 76.4009 109.822 75.9582 109.822C74.5564 109.822 71.4578 107.535 71.4578 106.502C71.4578 105.912 71.9004 105.027 72.4169 104.51C76.5484 100.01 81.0489 94.2551 81.0489 93.3698C81.0489 92.4844 78.0978 90.5662 76.7698 90.64C76.4747 90.7138 75.0729 92.1893 73.6711 94.0338Z"
              fill="black"/>
        <path d="M418.582 104.363C402.794 117.126 403.827 116.02 404.933 119.413C405.45 121.036 406.04 122.364 406.188 122.364C406.483 122.364 418.73 112.331 420.205 110.929C421.386 109.675 422.64 109.453 422.64 110.412C422.64 111.298 418.656 116.831 414.377 121.7C412.459 123.988 410.836 126.201 410.836 126.496C410.909 126.865 411.868 128.34 413.123 129.742L415.336 132.324L422.492 128.562C426.403 126.422 430.387 124.504 431.346 124.209C434.592 123.25 432.895 125.684 426.919 130.48C419.394 136.53 418.877 137.268 420.943 139.481C421.828 140.44 423.525 143.022 424.706 145.236C426.034 147.744 427.214 149.22 427.878 148.998C428.468 148.851 430.165 148.629 431.641 148.408C434.149 148.039 434.518 148.187 435.699 150.4C436.436 151.728 437.912 153.794 439.092 154.974C440.199 156.155 441.084 157.409 441.084 157.704C441.084 158.073 439.904 159.77 438.502 161.467C437.1 163.164 435.92 164.713 435.92 164.86C435.92 165.598 439.24 171.796 439.609 171.796C439.904 171.796 442.56 168.623 445.585 164.713C448.61 160.803 453.258 154.827 455.988 151.359C458.791 147.965 461.226 144.35 461.447 143.391C462.111 140.735 461.152 138.743 458.939 138.227C456.947 137.784 435.772 140.219 429.059 141.694C426.624 142.211 425.222 142.211 424.706 141.694C423.968 140.956 426.772 138.448 441.084 127.381C444.921 124.43 448.167 121.332 448.315 120.594C448.684 118.676 444.183 114.249 441.896 114.249C439.609 114.249 433.78 116.388 427.731 119.413C425.37 120.668 423.23 121.627 423.009 121.627C421.976 121.627 423.083 119.782 428.026 113.068C430.977 109.084 433.633 105.396 433.928 104.879C434.444 104.068 429.575 96.5423 428.542 96.5423C428.321 96.5423 423.894 100.084 418.582 104.363ZM451.192 146.342C451.561 147.449 447.651 151.654 445.806 152.171C444.626 152.54 444.036 152.097 443.076 150.031C442.412 148.556 441.822 147.08 441.822 146.711C441.822 145.309 450.749 144.94 451.192 146.342Z"
              fill="black"/>
        <path d="M42.9058 134.316C40.0284 138.891 37.52 143.391 37.2249 144.203C36.7822 145.604 37.52 146.268 42.4631 149.072C53.8249 155.638 64.5964 161.467 65.2604 161.467C66.2195 161.467 69.5395 156.376 69.0231 155.786C68.728 155.564 66.1458 154.163 63.1947 152.687C60.1698 151.212 57.7351 149.515 57.5875 148.777C57.44 148.113 58.6942 145.383 60.3173 142.801C62.0142 140.219 63.3422 137.858 63.3422 137.636C63.3422 137.046 59.2844 134.907 58.2515 134.907C57.8089 134.907 56.6284 136.456 55.6693 138.448C54.7102 140.366 53.3084 142.653 52.5707 143.539C51.2427 145.088 51.0951 145.088 48.4391 143.908C46.8898 143.244 45.6355 142.432 45.6355 142.063C45.6355 141.694 46.5209 139.924 47.5538 138.005C48.6604 136.087 50.3573 133.136 51.3164 131.439L53.0133 128.34L50.8738 127.16C49.6195 126.57 48.5129 126.053 48.3653 126.053C48.2178 126.053 45.7093 129.816 42.9058 134.316Z"
              fill="black"/>
        <path d="M34.2 158.22C29.6258 160.581 24.6089 167.443 24.1662 171.796C23.6498 177.624 24.0924 178.657 29.1093 183.379C32.3555 186.477 35.0853 188.322 37.3724 189.06C44.0862 191.199 45.4142 191.199 49.5458 189.281C56.5547 186.108 60.8338 177.329 59.3582 169.361C58.6942 165.893 54.12 160.876 49.7671 158.811C45.1929 156.671 37.6675 156.376 34.2 158.22ZM46.816 165.82C50.6524 168.549 53.7511 172.312 53.7511 174.083C53.7511 176.591 51.8329 180.354 49.6195 182.051C47.8489 183.452 46.8898 183.674 44.3075 183.305C37.2249 182.346 33.1671 179.395 31.6178 174.156C30.8062 171.279 33.3147 165.967 36.0444 164.639C39.2907 163.016 43.6435 163.459 46.816 165.82Z"
              fill="black"/>
        <path d="M464.693 163.975C462.037 164.86 458.865 166.188 457.684 166.779C456.43 167.443 452.225 168.992 448.241 170.32C441.896 172.386 441.084 172.828 441.084 174.378C441.084 179.173 442.708 179.395 451.413 176.222C456.947 174.23 461.004 173.419 461.004 174.378C461.004 174.599 458.053 178.288 454.364 182.567C447.577 190.461 446.987 191.789 448.462 195.773C448.979 197.175 449.569 197.692 450.528 197.396C451.192 197.175 455.619 195.7 460.267 194.076C464.915 192.453 471.112 190.461 473.916 189.502C476.793 188.617 479.523 187.584 480.039 187.141C481.293 186.035 481.146 182.936 479.818 182.346C478.121 181.756 470.153 183.452 465.284 185.518C462.923 186.477 460.857 187.289 460.636 187.289C458.717 187.289 463.587 180.354 470.817 172.755C473.768 169.656 473.768 169.582 473.104 166.115C472.292 161.836 471.407 161.614 464.693 163.975Z"
              fill="black"/>
        <path d="M450.38 199.684C449.864 200.126 450.749 204.479 451.413 205.217C451.708 205.586 453.7 206.25 455.914 206.692L459.824 207.578L460.709 213.037C461.226 215.988 461.447 218.866 461.226 219.456C461.078 219.972 459.75 221.3 458.348 222.333C456.209 223.956 455.84 224.694 455.84 227.203C455.84 229.711 456.061 230.08 457.537 230.08C458.422 230.08 461.152 228.752 463.587 227.129C466.021 225.432 472.292 221.596 477.457 218.497C482.695 215.398 487.122 212.447 487.343 211.931C487.86 210.603 486.163 205.733 485.056 205.364C484.392 205.069 466.021 201.823 454.217 199.905C452.299 199.61 450.528 199.462 450.38 199.684ZM474.284 210.16C475.096 210.603 475.76 211.193 475.76 211.488C475.76 212.078 468.972 215.324 467.792 215.324C466.98 215.324 466.169 212.89 466.169 210.234C466.169 208.611 466.316 208.537 469.489 208.98C471.333 209.201 473.547 209.717 474.284 210.16Z"
              fill="black"/>
        <path d="M15.1653 204.036C14.6489 204.848 11.9191 219.308 11.4027 223.588C11.0338 226.465 11.1813 227.129 12.3618 227.498C14.2062 228.088 41.3564 233.031 42.7582 233.031C43.6436 233.031 44.3076 231.113 45.5618 224.694C46.4471 220.194 47.3324 214.734 47.5538 212.668C47.9964 208.98 47.9964 208.906 45.6356 207.947C42.6107 206.692 42.4631 206.988 41.2827 215.472C39.9547 225.653 40.2498 225.137 35.8231 224.547C33.6836 224.252 31.7653 223.809 31.3964 223.514C31.1013 223.219 31.544 220.046 32.3556 216.357C33.1671 212.742 33.8311 209.422 33.8311 208.906C33.8311 207.947 29.0356 206.176 28.0027 206.766C27.6338 207.061 27.1173 208.316 26.8222 209.644C26.5271 210.898 25.7893 214.292 25.1991 217.021L24.0924 222.038L21.4364 221.817L18.7067 221.596L18.8542 216.357C18.928 213.554 19.4444 209.791 20.0347 208.094C21.0676 205.217 20.9938 204.922 19.8133 204.258C18.1902 203.372 15.608 203.299 15.1653 204.036Z"
              fill="black"/>
        <path d="M466.39 231.851C462.111 233.769 458.127 237.532 457.316 240.335C455.619 246.459 456.947 256.788 459.898 260.181C461.447 261.952 462.259 262.247 467.644 262.542C470.964 262.764 474.063 262.69 474.506 262.395C475.539 261.804 475.317 247.86 474.284 246.754C473.916 246.385 472.809 246.311 471.776 246.606C470.079 247.049 469.858 247.418 469.858 250.59C469.858 255.091 469.194 256.197 466.833 255.238C464.029 254.205 463.144 252.656 462.701 248.008C462.259 242.696 463.734 240.409 468.899 238.638C477.236 235.761 485.351 239.081 485.351 245.352C485.351 249.926 484.097 253.394 482.031 254.279C480.187 255.164 479.67 256.197 480.851 256.935C481.146 257.156 481.662 258.337 481.884 259.591C482.474 262.321 483.359 262.395 486.532 259.96C489.556 257.673 490.516 254.5 490.516 246.68C490.516 239.302 488.524 235.023 484.171 232.662C480.482 230.744 469.932 230.301 466.39 231.851Z"
              fill="black"/>
        <path d="M25.0516 237.31C24.1662 238.933 23.9449 249.041 24.6827 251.033C24.9778 251.844 26.0844 252.213 27.9289 252.213C30.9538 252.213 31.6178 251.402 31.6178 247.787C31.6178 241.958 34.4951 241.737 36.7822 247.344C38.7004 252.14 38.3316 254.869 35.4542 257.968C31.6178 262.026 21.2889 261.731 17.4524 257.378C15.6818 255.46 15.3867 254.5 15.3867 250.664C15.3867 246.532 15.5342 246.164 17.6 244.983C19.6658 243.876 19.8133 243.434 19.6658 240.409C19.4444 237.605 19.2231 237.089 17.7476 236.868C16.6409 236.72 15.3129 237.384 13.616 239.081L11.2551 241.516L11.3289 251.18C11.4764 259.812 11.624 261.14 13.0258 263.059C15.3867 266.379 18.4116 267.338 26.6009 267.338C33.3147 267.338 33.8311 267.19 36.9298 265.051C41.7253 261.657 43.4222 257.747 43.4222 250C43.4222 242.917 42.0942 239.155 38.9956 237.679C37.9627 237.236 34.6427 236.572 31.544 236.277C26.3058 235.835 25.7893 235.908 25.0516 237.31Z"
              fill="black"/>
        <path d="M456.873 266.895C456.725 267.043 456.578 269.035 456.578 271.322C456.578 273.609 456.061 278.921 455.471 283.126C454.291 291.537 454.364 292.053 458.201 292.053C460.34 292.053 460.267 292.422 461.447 281.429C462.111 275.158 462.111 275.084 466.316 275.084H470.005L469.784 283.348L469.489 291.684L471.628 291.906C474.432 292.275 474.801 291.758 475.686 286.446C476.055 284.012 476.719 280.544 477.236 278.921C477.973 276.044 478.195 275.822 480.629 275.822C482.179 275.822 483.359 276.265 483.58 276.929C483.802 277.519 483.654 281.356 483.212 285.561C482.326 293.603 482.474 294.34 485.868 295.3C487.86 295.89 488.081 295.3 489.04 286.151C489.409 282.315 489.999 277.076 490.22 274.568L490.737 270.068L484.908 269.551C481.662 269.256 474.137 268.444 468.161 267.78C462.111 267.116 457.094 266.674 456.873 266.895Z"
              fill="black"/>
        <path d="M38.7742 277.445C39.8071 288.733 39.8071 288.586 36.192 289.766C33.9787 290.43 32.7244 290.504 32.208 289.988C31.7653 289.545 31.1013 286.151 30.7324 282.315C30.3635 278.552 29.6995 275.158 29.4044 274.789C29.0355 274.42 27.56 274.494 25.9369 274.863L23.1333 275.527L23.5022 279.216C23.6498 281.208 23.8711 284.676 23.8711 286.889C23.8711 290.578 23.7235 290.947 21.8053 291.611C20.4773 292.127 19.5182 292.053 19.0018 291.537C18.5591 291.094 17.6738 287.332 16.936 283.126L15.6818 275.453L13.3209 275.232L10.96 275.011V278.552C11.0338 282.979 12.8044 298.62 13.3947 299.136C13.9111 299.652 27.3387 298.324 38.1102 296.701C45.488 295.521 46.3733 295.226 46.3733 293.898C46.3733 291.02 44.16 272.724 43.7173 272.06C43.496 271.691 42.168 271.396 40.7662 271.396H38.2578L38.7742 277.445Z"
              fill="black"/>
        <path d="M452.446 297.587C452.225 299.062 452.151 300.39 452.372 300.612C452.594 300.833 456.947 302.013 462.037 303.268C475.834 306.661 473.473 307.989 456.578 306.44L450.307 305.924L449.348 309.465C448.536 312.416 448.536 313.08 449.348 313.375C450.897 313.892 464.177 320.974 465.8 322.081C467.128 323.114 466.98 323.114 463.587 322.745C461.595 322.45 457.094 321.564 453.7 320.679C447.651 319.13 447.503 319.13 446.544 320.458C444.7 322.966 445.29 324.368 449.052 325.991C453.7 328.131 475.022 334.18 476.793 333.959C478.268 333.738 479.596 330.713 480.408 325.991L480.851 323.409L472.588 319.351C461.447 313.892 461.521 313.006 473.252 313.375C480.703 313.596 482.326 313.449 483.285 312.416C484.466 311.309 486.679 303.415 486.015 302.825C485.572 302.456 454.955 295.004 453.848 295.004C453.332 295.004 452.741 296.185 452.446 297.587Z"
              fill="black"/>
        <path d="M43.5698 298.62C42.4631 299.284 42.9796 305.407 44.6027 310.055C46.2996 314.777 46.0782 315.22 41.4302 316.326C26.6009 319.646 21.5102 320.974 20.6249 321.491C19.8871 321.933 19.8133 322.966 20.1822 325.253C20.6987 328.278 20.7724 328.352 23.4284 327.983C26.4533 327.614 48.5867 321.933 51.7591 320.679C53.1609 320.089 53.7511 319.499 53.456 318.687C52.792 316.548 48.7342 302.087 48.2916 299.948C47.7751 297.882 45.6356 297.292 43.5698 298.62Z"
              fill="black"/>
        <path d="M52.128 323.188C49.0293 324.22 48.9556 326.139 51.8329 332.852C53.3084 336.172 54.4889 339.345 54.4889 339.714C54.4889 340.156 51.2427 341.927 47.3324 343.698C31.2489 350.633 31.6178 350.485 31.6178 352.108C31.6178 352.92 31.8391 354.469 32.1342 355.355C32.7244 357.789 34.0524 357.42 48.4391 351.149C55.0053 348.272 60.9076 345.911 61.4978 345.911C63.5636 345.911 63.3422 344.288 60.1698 336.91C58.3991 332.705 56.3333 327.762 55.5218 325.917C54.1938 322.745 53.9724 322.597 52.128 323.188Z"
              fill="black"/>
        <path d="M437.469 341.411L432.231 351.666L434.371 353.215C435.551 354.1 437.027 354.764 437.617 354.764C438.724 354.764 441.675 349.379 444.552 342.148C445.806 338.902 445.806 338.902 449.274 340.156C453.405 341.558 453.405 341.263 449.643 350.559L447.356 356.388L449.052 357.716C450.012 358.527 451.192 358.97 451.708 358.748C452.225 358.527 453.996 355.355 455.692 351.666C458.053 346.501 459.012 345.1 459.972 345.468C460.562 345.69 461.742 345.911 462.554 345.911C465.062 345.911 464.915 347.829 461.816 355.06C460.193 358.896 459.012 362.585 459.234 363.249C459.898 364.798 463.218 365.536 464.029 364.282C466.095 360.962 473.325 343.181 472.735 342.739C471.85 342.075 452.077 333.295 449.274 332.262C443.224 330.123 443.298 330.049 437.469 341.411Z"
              fill="black"/>
        <path d="M50.5787 355.724C45.0453 358.896 42.4631 362.659 42.0942 368.118C41.2827 378.816 48.9556 387.3 58.5467 386.268C65.9244 385.53 73.9662 379.701 75.8844 373.725C77.8027 367.602 76.2533 362.659 70.4249 356.609L67.2524 353.289H61.0551C55.3742 353.289 54.4889 353.51 50.5787 355.724ZM66.9573 361.331C67.6951 361.773 68.8756 363.396 69.6133 365.02C71.1627 368.561 70.5724 370.774 66.8098 374.906C64.3751 377.488 59.6533 379.111 54.4889 379.111C51.6853 379.111 47.8489 374.168 47.8489 370.553C47.8489 367.823 50.5049 364.208 54.12 362.068C56.5547 360.519 64.5964 360.15 66.9573 361.331Z"
              fill="black"/>
        <path d="M428.1 357.494C426.993 360.076 426.993 360.224 428.69 361.552C429.575 362.29 432.748 364.208 435.551 365.831C442.044 369.446 443.814 370.774 443.15 371.364C442.929 371.66 437.691 371.807 431.567 371.807L420.427 371.66L418.213 374.094C416.959 375.422 416 376.676 416 376.898C416 377.193 418.73 378.964 422.124 380.882C425.444 382.874 429.354 385.235 430.756 386.12C432.157 387.079 435.92 389.366 439.092 391.211L444.847 394.604L446.618 392.539C449.643 389.145 450.233 389.735 435.404 381.546C432.821 380.144 430.756 378.668 430.756 378.3C430.756 377.857 435.551 377.783 443.15 378.004L455.471 378.447L456.725 376.676C459.16 373.209 458.791 372.324 453.258 368.635C450.454 366.716 444.921 363.47 441.084 361.331C437.248 359.265 433.19 356.904 432.084 356.166C430.977 355.355 429.87 354.764 429.649 354.764C429.428 354.764 428.69 356.019 428.1 357.494Z"
              fill="black"/>
        <path d="M78.6142 381.103C75.2204 381.472 74.5564 382.726 76.4009 385.53C78.1716 388.407 78.5404 388.555 82.008 388.186C84.5164 387.891 85.4756 388.186 87.2462 389.661C89.976 392.022 89.976 394.9 87.3938 399.4C85.1804 403.089 80.3849 405.819 75.7369 405.966C73.3022 406.04 72.4169 405.597 70.6462 403.605C68.5067 401.244 67.8427 398.072 69.2444 397.187C70.7938 396.228 69.8347 394.162 67.0311 392.539L64.1538 390.916L63.0471 392.539C59.8009 397.556 60.9813 402.351 66.8836 408.401C70.72 412.385 71.5316 412.901 74.9991 413.344C81.2702 414.156 83.8524 413.049 89.6809 406.852C94.4764 401.908 94.9191 401.097 95.3618 397.482C95.952 392.539 95.1404 389.588 91.968 385.677C88.1316 380.882 86.5084 380.292 78.6142 381.103Z"
              fill="black"/>
        <path d="M406.114 388.26C403.753 391.432 403.753 391.653 406.261 393.424C412.016 397.556 424.853 408.253 424.853 408.991C424.853 409.434 423.378 411.278 421.533 413.049C419.689 414.82 418.213 416.59 418.213 416.885C418.213 417.18 419.025 417.623 420.058 417.918C421.091 418.14 421.902 418.656 421.902 418.951C421.902 419.246 422.345 419.689 422.935 419.91C423.525 420.132 425.665 417.992 428.616 413.934C431.198 410.393 434.961 405.745 436.953 403.679L440.568 399.769L438.281 397.482L435.994 395.121L433.928 397.556C432.821 398.957 431.493 400.507 431.051 401.171C430.387 402.056 429.796 402.13 428.468 401.466C426.624 400.654 415.115 391.58 411.204 387.891C409.95 386.71 408.696 385.751 408.475 385.751C408.253 385.751 407.22 386.858 406.114 388.26Z"
              fill="black"/>
        <path d="M392.834 406.556C391.358 413.713 390.62 416.221 389.514 417.549C388.407 418.951 387.964 419.025 385.382 418.287C383.759 417.844 381.177 417.476 379.701 417.476C376.824 417.476 375.939 418.656 378.226 419.468C381.177 420.574 387.227 425.001 387.227 426.034C387.227 426.624 386.268 429.28 385.013 432.01C383.833 434.666 382.8 437.174 382.8 437.543C382.8 437.912 385.087 436.215 387.817 433.78C392.465 429.649 394.604 428.395 394.604 429.87C394.604 430.165 396.375 431.788 398.588 433.559C405.007 438.502 405.745 437.691 401.54 430.165C398.441 424.632 398.146 425.148 406.114 421.017C408.696 419.689 410.836 418.287 410.836 417.918C410.836 417.328 407.442 417.549 400.728 418.656C397.777 419.099 397.556 419.025 396.744 417.033C396.301 415.852 395.564 412.68 395.121 409.876C394.309 404.86 393.424 403.605 392.834 406.556Z"
              fill="black"/>
        <path d="M103.625 409.508C102.444 418.656 100.969 420.279 94.8453 418.951C92.4107 418.435 90.3449 418.361 89.2382 418.73C87.6151 419.394 87.7627 419.541 91.5991 421.46C93.8862 422.566 96.3947 424.263 97.2062 425.296C98.608 427.067 98.608 427.14 96.4684 432.748C95.288 435.772 94.4764 438.502 94.6978 438.797C94.9929 439.019 96.0995 438.207 97.1324 436.953C98.2391 435.699 100.452 433.633 102.149 432.379C105.1 430.092 105.174 430.092 107.314 431.42C108.494 432.157 110.634 434.002 111.962 435.477C113.364 436.953 114.839 438.133 115.134 438.133C116.167 438.133 115.798 436.141 114.323 433.559C112.626 430.756 111.74 426.329 112.552 425.148C112.921 424.706 115.503 423.083 118.307 421.46L123.471 418.582L120.668 418.361C119.118 418.213 116.167 418.435 114.249 418.877C109.601 419.91 108.568 419.468 108.052 416.148C106.65 408.032 105.986 405.671 105.1 405.671C104.436 405.671 103.92 407.147 103.625 409.508Z"
              fill="black"/>
        <path d="M364.356 425.739C356.314 430.682 345.173 438.207 345.173 438.724C345.173 439.092 345.985 440.125 347.018 441.084C348.788 442.781 348.862 442.781 351.74 441.453C353.363 440.789 354.838 439.683 355.06 439.166C355.502 437.986 357.716 437.764 357.716 438.797C357.716 439.166 359.634 441.97 361.995 444.921C364.356 447.872 367.749 452.52 369.52 455.25C372.397 459.603 374.684 461.595 374.684 459.676C374.684 459.308 375.496 458.644 376.529 458.201C377.562 457.758 378.373 456.947 378.373 456.43C378.373 455.988 375.127 450.749 371.217 444.847L364.134 434.149L366.2 432.6C371.438 428.764 371.291 428.985 370.184 426.476C369.004 423.747 367.897 423.599 364.356 425.739Z"
              fill="black"/>
        <path d="M137.636 430.903C135.866 433.485 131.956 439.314 129.004 443.888L123.619 452.225L125.684 454.364C128.414 457.168 129.3 457.168 130.996 454.143C131.808 452.815 133.505 450.528 134.907 448.979C136.825 446.765 137.489 446.396 138.3 447.06C138.891 447.503 139.333 448.905 139.333 450.085C139.333 451.266 139.85 453.405 140.44 454.807C141.104 456.356 141.399 458.57 141.178 460.193C140.956 461.668 141.03 463.218 141.325 463.66C142.284 464.915 147.154 468.382 148.039 468.382C148.629 468.382 148.703 464.915 148.408 456.652L147.965 444.847L150.105 444.331C151.285 444.036 154.9 443.224 158.147 442.56C165.082 441.158 165.672 440.052 160.729 437.617L157.409 435.994L151.876 437.396C143.539 439.461 142.58 439.535 142.875 437.764C143.17 436.068 145.826 432.157 147.228 431.272C147.744 430.977 148.187 430.239 148.187 429.723C148.187 428.764 143.686 426.329 141.916 426.329C141.325 426.329 139.407 428.395 137.636 430.903Z"
              fill="black"/>
        <path d="M334.107 445.585C331.303 447.282 330.344 448.462 330.86 449.348C331.229 449.938 332.852 464.988 333.738 476.276C334.033 479.67 334.476 482.4 334.844 482.4C335.14 482.4 336.468 481.662 337.869 480.703C339.788 479.449 340.452 478.416 340.599 476.498C340.968 471.407 341.337 470.817 345.1 469.194C349.895 467.128 351.666 467.202 354.1 469.563C356.019 471.333 356.314 471.407 358.97 470.596C360.519 470.079 362.068 469.415 362.364 469.12C363.028 468.53 338.755 444.036 337.5 444.036C337.058 444.036 335.508 444.773 334.107 445.585ZM340.747 455.102C342.517 456.061 345.173 460.414 345.173 462.406C345.173 463.66 344.731 463.956 342.591 463.956C339.566 463.956 338.533 462.259 338.533 457.242C338.533 454.143 338.681 453.996 340.747 455.102Z"
              fill="black"/>
        <path d="M170.541 446.765C167.664 447.356 161.098 453.996 159.253 458.201C156.819 463.882 157.335 470.891 160.434 474.801C161.688 476.35 163.754 478.195 164.934 478.859C167.516 480.408 174.968 481.367 178.804 480.629C182.641 479.892 188.174 474.284 189.797 469.341C191.347 464.62 191.494 458.201 190.019 455.397C186.625 448.831 178.436 445.216 170.541 446.765ZM179.542 453.922C183.231 455.471 184.633 458.053 184.116 462.48C183.452 468.013 181.092 471.924 177.476 473.62C173.419 475.391 171.279 475.391 168.402 473.399C164.344 470.596 163.68 467.94 165.524 462.406C168.18 454.586 173.419 451.413 179.542 453.922Z"
              fill="black"/>
        <path d="M310.498 456.209C310.498 456.799 311.162 459.676 311.9 462.48C312.859 465.8 313.08 467.792 312.637 468.087C311.678 468.677 303.858 470.522 302.235 470.596C301.349 470.596 300.685 469.194 299.726 464.988C298.472 459.824 298.251 459.455 296.701 459.824C294.045 460.562 291.316 461.668 291.316 462.111C291.316 462.332 292.127 465.136 293.086 468.235C294.709 473.399 297.365 482.843 299.431 491.18C300.243 494.278 300.316 494.352 302.604 493.909C306.809 493.098 307.03 492.286 305.333 485.056C304.522 481.515 303.858 478.195 303.858 477.678C303.858 476.645 313.301 474.506 315.072 475.17C315.588 475.391 316.695 478.268 317.433 481.588C318.982 488.007 318.982 488.007 323.778 487.122C326.581 486.532 326.729 487.86 322.007 471.702C316.695 453.405 317.507 455.102 313.744 455.102C311.309 455.102 310.498 455.397 310.498 456.209Z"
              fill="black"/>
        <path d="M197.765 461.521C197.249 463.882 195.7 471.038 194.15 477.457C192.527 484.54 191.716 489.335 192.158 489.704C192.748 490.294 208.684 494.647 213.259 495.459C215.029 495.828 215.324 495.532 215.988 493.024C217.169 488.671 217.095 488.45 212.964 487.638C202.782 485.499 201.159 484.982 200.79 484.023C200.569 483.507 201.602 477.973 203.077 471.85C204.553 465.652 205.733 460.119 205.733 459.455C205.733 458.348 202.635 457.389 199.388 457.316C198.946 457.316 198.208 459.234 197.765 461.521Z"
              fill="black"/>
        <path d="M268.592 463.956C265.198 464.767 261.509 467.497 259.296 470.817C257.304 473.916 256.197 480.187 256.935 483.949C257.673 487.86 261.288 494.278 263.944 496.492C266.305 498.41 267.116 498.631 271.617 498.631C276.56 498.631 280.987 497.229 280.987 495.68C280.987 494.573 282.536 494.795 284.012 496.123C284.971 497.008 286.077 497.229 287.922 496.86L290.43 496.344L289.471 493.245C288.955 491.475 288.291 487.491 287.996 484.392L287.479 478.711H282.388C276.339 478.711 273.609 479.596 273.609 481.588C273.609 483.359 274.568 484.023 278.036 484.613C281.577 485.13 281.724 486.974 278.552 490.147C276.56 492.139 275.38 492.729 273.388 492.729C266.452 492.729 261.804 482.474 265.124 474.506C266.6 471.038 268.149 469.932 271.764 469.858C275.97 469.858 277.888 470.522 278.404 472.145C278.773 473.325 279.585 473.547 282.905 473.547C285.93 473.547 286.889 473.252 286.889 472.44C286.889 470.964 281.946 465.579 279.437 464.251C277.224 463.144 272.576 462.996 268.592 463.956Z"
              fill="black"/>
        <path d="M236.204 464.472C235.687 464.62 235.244 465.062 235.244 465.431C235.244 465.8 234.064 468.677 232.588 471.85C228.088 481.515 221.964 495.754 221.964 496.492C221.964 496.86 223.661 497.156 225.653 497.156C229.342 497.156 229.416 497.156 230.818 493.909L232.22 490.663L235.023 491.327C236.572 491.696 239.228 491.77 240.999 491.548C244.024 491.106 244.098 491.106 244.098 493.172C244.098 498.041 244.688 498.631 248.967 498.631C251.18 498.631 252.951 498.336 252.951 497.967C252.951 497.598 252.14 494.573 251.18 491.18C249.557 485.425 245.795 470.079 245.131 466.464C244.762 464.324 239.376 463.144 236.204 464.472ZM240.852 479.449C242.327 484.466 242.253 484.613 238.564 484.613C234.802 484.613 234.654 484.318 236.425 479.154C237.9 474.801 239.524 474.875 240.852 479.449Z"
              fill="black"/>
    </g>
    <defs>
        <clipPath id="clip0_1_2">
            <rect width="500" height="500" fill="white"/>
        </clipPath>
    </defs>
</svg>
